<svg xmlns="http://www.w3.org/2000/svg" width="360" height="360" viewBox="0 0 360 360">
  <g id="Group_11" data-name="Group 11" transform="translate(-846.823 -530.265)">
    <path id="Path_50" data-name="Path 50" d="M104.513,41.14c.091,9.605-1.236,142.7-.567,164.155.113,3.514-2.269,4.51-4.379,3.265-2.586-1.464-4.095-5.974-4.208-9.415-1.2-38.495,2.008-170.335.272-180.1S28.184,15.414,6.336,15.4C1.7,15.4-2.852,1.328,2.242,1.328c21.178,0,42.367-.469,63.523-.835C77.572.3,97.389-3.592,102.834,14.067,105.33,22.105,104.422,32.589,104.513,41.14Z" transform="translate(1085.713 549.296) rotate(90)" opacity="0.2"/>
    <path id="Path_49" data-name="Path 49" d="M104.513,41.14c.091,9.605-1.236,142.7-.567,164.155.113,3.514-2.269,4.51-4.379,3.265-2.586-1.464-4.095-5.974-4.208-9.415-1.2-38.495,2.008-170.335.272-180.1S28.184,15.414,6.336,15.4C1.7,15.4-2.852,1.328,2.242,1.328c21.178,0,42.367-.469,63.523-.835C77.572.3,97.389-3.592,102.834,14.067,105.33,22.105,104.422,32.589,104.513,41.14Z" transform="translate(1081.713 667.296) rotate(90)" opacity="0.2"/>
    <path id="Path_31" data-name="Path 31" d="M362.564,241.047c-.074-54.623-.067-179.754,0-187.744.134-23.728-4.765-31.065-11.338-31.888a150.944,150.944,0,0,0-19.438-1.307H92.587c-19.245,0-69.236-.145-75.006.533-5.055.605-12.5.387-13.758,20.556-.011.249-.011.5,0,.751-.543,14.043-.231,28.764-.29,42.808-.134,29.83-.923,189.172-.819,238.977,0,11.162-.223,24.576.953,35.181,2.047,18.571,10.356,18.256,15.306,19.612,9.284,2.421,45.5,1.332,52.9,1.283,33.829-.315,176.441-1.768,213.955-2.179l42.949-.484c8.621-.145,17.964,2.421,26.436-3.148,2.479-1.6,5.263-4.528,6.306-12.784,1.28-10.169,1.079-25.205,1.169-35.956.037-3.9-.089-60.023-.127-84.211Zm-1.824,84.211c-.017,7.825-.213,15.635-.588,23.365-.663,11.307-1.943,16.949-5.457,19.249-4.422,2.833-9.112,2.01-13.594,2.276s-106.46,1.55-140.267,1.937c-36.2.387-131.37,1.477-142.761,1.671-2.665,0-24.612.63-32.273.242a31.164,31.164,0,0,1-13.125-3.317c-2.137-1.089-4.832-2.421-6.4-7.869s-1.489-13.583-1.645-20.653c-.156-7.554-.32-14.915-.313-22.445,0-20.726.32-180.892.514-240.236.045-12.106-.246-24.818.186-36.827q0-.109,0-.218c1.191-17.7,8.137-16.392,12.515-16.682,4.757-.315,9.522-.266,14.279-.145H73.417c35.035,0,250.888-.436,269.716.993,3.983.291,8.509-1.211,12.4,2.058,6.209,5.206,4.981,24.213,4.906,40.169,0,4.068.067,59.417.1,83.025C360.621,206.3,360.77,321.723,360.74,325.258Z" transform="translate(844.126 510.17)" fill="#1e1e1e"/>
    <path id="Path_33" data-name="Path 33" d="M304.844,119.826c-6,7.764-100.528,2.763-101.7.871s-2.976-84.838.87-92.347,96.6-2.493,97.8-1.2c5.2,4.851,4.128,77.794,3.035,92.677Z" transform="translate(773.126 757.17)" fill="#5bbb5d" opacity="0.85"/>
    <path id="Path_34" data-name="Path 34" d="M10.608,26.592c3.124-2.63,101.057-2.547,104.658.181s2.229,215.522,1.225,222.046S13.6,253.453,10.621,245.926,4.937,32.262,10.608,26.592Z" transform="translate(829.374 658.823) rotate(-90)" fill="#f78100" opacity="0.85"/>
    <path id="Path_35" data-name="Path 35" d="M110.455,27.756c5.827.286,197.148-7,208.117,1.329,2.448,6.141,6.709,91.108-.612,102.937-6.023,5.754-204.69,5.754-206.526-.151-13-13.965-6.17-101.877-.979-104.114Z" transform="translate(752.126 631.17)" fill="#1ab3e2" opacity="0.85"/>
    <path id="Path_36" data-name="Path 36" d="M209.269,195.285c-3.85,4.286-94.731,6.836-100.993,1.275s-1.711-84.181-.974-95.042c8.6-5.33,99.436-3.856,100.648-2.535C211.289,102.271,210.362,180.093,209.269,195.285Z" transform="translate(748.869 679.739)" fill="#e85858" opacity="0.85"/>
    <path id="Path_37" data-name="Path 37" d="M393.912,30.425c.228-1.731-.072-4.159,2.473-5.038,6.218-1.6,88.34-.392,92.662-.277a14.778,14.778,0,0,1,8.3,3.05c2.473,2.11,2.785,79.068-.936,87.67-2.8,2.171-96.539,3.888-101.665-.676s-1.056-83-.828-84.728Z" transform="translate(699.126 525.17)" fill="#dd77e5" opacity="0.85"/>
    <path id="Path_38" data-name="Path 38" d="M363.409,93.624c-22.812-.656-45.638-.515-68.457-.534q-45.175,0-90.372.112-45.974.131-91.949.347-36.612.178-73.179.384l-23.267.141c-3.377,0-7.472-.74-10.782.075a2.171,2.171,0,0,1-.493,0,1.235,1.235,0,0,0,0,2.352q13.823-.1,27.646-.169,34.669-.206,69.339-.393,45.354-.225,90.7-.393,45.855-.159,91.7-.2c24.119,0,48.238.253,72.357.131,2.242,0,4.483,0,6.762-.056a1.021,1.021,0,0,0,0-1.8Z" transform="translate(842.869 558.439)" fill="#1e1e1e"/>
    <path id="Path_39" data-name="Path 39" d="M363.409,93.624c-22.812-.656-45.638-.515-68.457-.534q-45.175,0-90.372.112-45.974.131-91.949.347-36.612.178-73.179.384l-23.267.141c-3.377,0-7.472-.74-10.782.075a2.171,2.171,0,0,1-.493,0,1.235,1.235,0,0,0,0,2.352q13.823-.1,27.646-.169,34.669-.206,69.339-.393,45.354-.225,90.7-.393,45.855-.159,91.7-.2c24.119,0,48.238.253,72.357.131,2.242,0,4.483,0,6.762-.056a1.021,1.021,0,0,0,0-1.8Z" transform="translate(842.869 678.439)" fill="#1e1e1e"/>
    <path id="Path_40" data-name="Path 40" d="M353.522,93.624c-22.184-.656-44.382-.515-66.574-.534q-43.932,0-87.885.112-44.709.131-89.419.347-35.6.178-71.166.384l-22.627.141c-3.284,0-7.266-.74-10.485.075a2.054,2.054,0,0,1-.48,0,1.246,1.246,0,0,0,0,2.352q13.443-.1,26.885-.169,33.715-.206,67.431-.393,44.106-.225,88.205-.393,44.593-.159,89.179-.2c23.456,0,46.911.253,70.367.131,2.18,0,4.36,0,6.576-.056a1.035,1.035,0,0,0,0-1.8Z" transform="translate(1058.667 530.231) rotate(90)" fill="#1e1e1e"/>
    <path id="Path_41" data-name="Path 41" d="M353.522,93.624c-22.184-.656-44.382-.515-66.574-.534q-43.932,0-87.885.112-44.709.131-89.419.347-35.6.178-71.166.384l-22.627.141c-3.284,0-7.266-.74-10.485.075a2.054,2.054,0,0,1-.48,0,1.246,1.246,0,0,0,0,2.352q13.443-.1,26.885-.169,33.715-.206,67.431-.393,44.106-.225,88.205-.393,44.593-.159,89.179-.2c23.456,0,46.911.253,70.367.131,2.18,0,4.36,0,6.576-.056a1.035,1.035,0,0,0,0-1.8Z" transform="translate(1178.667 529.231) rotate(90)" fill="#1e1e1e"/>
    <path id="Path_42" data-name="Path 42" d="M121.22,61.69a.83.83,0,1,0,.83.83.83.83,0,0,0-.83-.83ZM126,51a.81.81,0,0,0-1.21.7.79.79,0,0,0,.89.78.85.85,0,0,0,.33-.07h.06a.73.73,0,0,0,.37-.64A.87.87,0,0,0,126,51Zm-.12,3.64a.23.23,0,0,0-.36,0c-.86,1-.62,2.44-.65,3.71,0,1.63.11,3.27,0,4.91,0,.77,1.26,1,1.37.18a30.049,30.049,0,0,0,0-4.45C126.26,57.6,126.68,55.8,125.88,54.64Zm5.68,7.46c-1,.61-.9-4.32-.89-4.7,0-.62.05-1.26.09-1.89a3.74,3.74,0,0,0,1.42-.12.72.72,0,0,0,0-1.37,3.11,3.11,0,0,0-1.37-.11,11.636,11.636,0,0,0-.08-1.45.63.63,0,0,0-1.23-.17,14.2,14.2,0,0,0-.3,1.82,3.87,3.87,0,0,0-1.34.41.53.53,0,0,0,.13,1,3.83,3.83,0,0,0,1.07.07c-.29,4,0,9.73,3.28,7.88.87-.47.06-1.91-.78-1.37Zm6.75-8.1a4.39,4.39,0,0,0-4.22,3.63,5,5,0,0,0,7.65,5.05.741.741,0,1,0-.91-1.17,3.41,3.41,0,0,1-5.3-2c2.09.36,4.42-.26,6.48-.24a.82.82,0,0,0,.7-1.22c-.92-1.91-1.96-4.05-4.4-4.05Zm-2.87,4a.22.22,0,0,1,0-.08c.3-1.65,2-3.21,3.71-2.21a4.33,4.33,0,0,1,1.58,2,52.408,52.408,0,0,0-5.29.29Zm22.16-1.38a3,3,0,0,0-1.47-2.46c-1.35-.58-3.41.43-4.5,1.74a2.05,2.05,0,0,0-.84-1.53c-1.26-.83-3.24,0-4.38,1.16a7.4,7.4,0,0,0-.28-1.17c-.13-.37-.74-.56-.93-.12a7.62,7.62,0,0,0-.28,3.8c.11,1.61.14,3.23.31,4.84.08.79,1.33,1.12,1.51.2a14.76,14.76,0,0,0-.06-4.4c-.05-.4-.07-.82-.1-1.24a3,3,0,0,1,.26-.22c.67-.56,1.88-1.81,2.84-1.31.58.31.39.91.4,1.54v1.76a17,17,0,0,0,.2,3.42.72.72,0,0,0,1.38,0,24.889,24.889,0,0,0,0-5.18c1.18-.88,3.61-2.58,4.12-.71a12,12,0,0,1,0,2.94c0,1,.12,2,.19,3a.92.92,0,1,0,1.82-.25c-.3-1.93.07-3.88-.19-5.81Zm5.18,1.71a16.71,16.71,0,0,0-2.73-.14c-.61.07-1.05,1-.35,1.3a9.19,9.19,0,0,0,3.08.63C163.91,60.23,163.93,58.39,162.78,58.33Zm11.02-.49c-.37-1.63-1.59-3.43-3.38-3.67a3.62,3.62,0,0,0-2.83,1,15.466,15.466,0,0,0-.551-4.093c-.149-.487-1-.587-1.089,0a30.771,30.771,0,0,0,0,5.43,57.842,57.842,0,0,0,.13,6.18c.09.74,1.29,1.1,1.44.19v-.33c1.43.91,3.12,1.58,4.65.45a5.13,5.13,0,0,0,1.63-5.16Zm-2,3.19c-1.07,1.79-3,.68-4.14-.25,0-1.27,0-2.56-.06-3.83v-.17c.82-.83,2.14-1.51,3.16-1a3.53,3.53,0,0,1,1.55,2.57,4.17,4.17,0,0,1-.46,2.65Z" transform="translate(814.126 653.17)" fill="#1e1e1e"/>
    <path id="Path_43" data-name="Path 43" d="M25.58,63.1a.85.85,0,0,0-1.48-.28.84.84,0,0,0,.66,1.35h.06a.81.81,0,0,0,.77-1Zm3.06-7.72c-.21,2.65.28,5.31.16,8-.05,1.11,1.67,1.1,1.72,0a64.27,64.27,0,0,0-.37-8,.76.76,0,0,0-1.51,0Zm.69-2.45h.06a.81.81,0,0,0,.55-.64,1.39,1.39,0,0,0,0-.71.71.71,0,0,0-1.19-.31c-.32.39-.71.79-.34,1.32a.81.81,0,0,0,.92.34Zm6.74,9.78c-.9,1-1.19-2.7-1.21-2.86-.06-.77-.17-3.21-.16-3.66h1.21a.912.912,0,1,0-.24-1.8,7.52,7.52,0,0,1-.94.11,10.79,10.79,0,0,0-.19-2c-.12-.58-.87-.45-1,0A7.52,7.52,0,0,0,33,54.49h-.54a.76.76,0,0,0-.73.56v.17c-.06.52.5.77,1.24.88,0,.75.07,1.5.11,2.2a16.32,16.32,0,0,0,.59,4.62c.63,1.6,2.57,2.31,3.66.76.52-.75-.65-1.63-1.26-.97Zm7.7-8.02a4.6,4.6,0,0,0-4.87,2.6,7.14,7.14,0,0,0-.48,2,4.28,4.28,0,0,0,1.64,3.85,5.31,5.31,0,0,0,6.31-.37c.84-.62.06-2-.84-1.44-1.19.8-2.53,1.43-4,.81A2.55,2.55,0,0,1,40,59.91c2.39,0,4.8-.17,7.18-.28A.9.9,0,0,0,48,58.52a5.45,5.45,0,0,0-4.23-3.83Zm-3.56,3.59v-.06c1-2.9,4.07-2.19,5.53-.29-1.84.07-3.74.15-5.53.35Zm21.61-3.72a4.44,4.44,0,0,0-4.73,1.67,2.73,2.73,0,0,0-.7-.81,3.46,3.46,0,0,0-4.79.22,3.37,3.37,0,0,0-.22-.68c-.22-.49-.86-.25-1,.14-.49,1.17-.25,6.79-.24,8.24a.86.86,0,1,0,1.72,0c0-1.56-.07-5.56-.07-6a5.24,5.24,0,0,1,1.58-1.17,1.81,1.81,0,0,1,2.49,1.32,33.62,33.62,0,0,1-.23,6,.866.866,0,0,0,1.73,0c.1-1.8.19-3.64.12-5.45a3.83,3.83,0,0,1,1.91-1.77A2.86,2.86,0,0,1,60.48,56c.85.07,1.32,1.11,1.44,1.89.26,1.76-.23,3.69-.24,5.46a.87.87,0,0,0,1.73,0,29.519,29.519,0,0,0,.09-6.09,2.93,2.93,0,0,0-1.68-2.7Zm7.79,3.61a21.341,21.341,0,0,0-4,.54.65.65,0,0,0,.13,1.2,21.071,21.071,0,0,0,3.81,0c1.18-.07,1.21-1.79.06-1.74ZM80,58.4a4.63,4.63,0,0,0-1.21-3.26c-1.52-1.31-4.9-.7-6,.93a.6.6,0,0,0,.67.88c1.74-.62,4.4-1.7,4.74,1,0,.28.06.57.08.85a4.71,4.71,0,0,0-4-.79,3.64,3.64,0,0,0-2.39,4c.41,3.19,4.48,3,6.69,1.29v.39c.08,1.14,1.87,1.14,1.78,0C80.24,61.91,80.13,60.15,80,58.4Zm-3.68,4.21c-1,.3-2.82.31-2.83-1.13,0-3.1,3.26-1.8,5-1v.56a5.26,5.26,0,0,1-2.21,1.57Z" transform="translate(910.126 538.17)" fill="#1e1e1e"/>
    <path id="Path_44" data-name="Path 44" d="M121.15,134.83a.6.6,0,0,0-.38.21.73.73,0,0,0-.22.27v.05a.954.954,0,0,0,1.31,1.3.94.94,0,0,0,.51-.67,1,1,0,0,0-1.22-1.16Zm4.85-7.36a.19.19,0,0,0-.26,0c-1,.88-.68,2.49-.72,3.69a25.82,25.82,0,0,0,.09,5.05.7.7,0,0,0,1.34,0,31.51,31.51,0,0,0,.12-5.05c.04-1.16.37-2.76-.57-3.69Zm.38-2.91a1.589,1.589,0,0,0,.06-.37.47.47,0,0,0-.27-.48.706.706,0,0,0-1,.4.5.5,0,0,1,0,.12.65.65,0,0,0,1.21.33Zm6.55,10.54c-2.31.61-1.62-4.91-1.61-5.79v-.94a6.13,6.13,0,0,1,1.28.09c1,.12,1.07-1.74,0-1.65a10.771,10.771,0,0,1-1.27,0,9.44,9.44,0,0,0-.29-2.25.47.47,0,0,0-.9,0,9.11,9.11,0,0,0-.36,2.22,2.07,2.07,0,0,0-1.23.29.38.38,0,0,0-.07.58,2,2,0,0,0,1.25.55v1.51a15.88,15.88,0,0,0,.21,4.87c.49,1.61,2.17,2.85,3.66,1.66.57-.44-.04-1.31-.67-1.14Zm6.81-8.39c-2,.07-3.65,2-4.21,3.82a4.7,4.7,0,0,0,1.54,5.16,5.8,5.8,0,0,0,6.32.39c1-.5.1-2.12-.89-1.53-2.31,1.38-5.62.42-6-2.12,2.43.1,4.89-.11,7.31-.22a.8.8,0,0,0,.68-1.19c-1.14-1.76-2.22-4.39-4.75-4.31Zm-3.07,4.21c.47-1.61,2.26-3.64,4-2.52a6,6,0,0,1,1.81,2.28C140.56,130.74,136.65,131,136.67,130.92Zm22.4-3.67c-1.73-.77-3.84.23-5.07,1.68a2.9,2.9,0,0,0-1.41-1.63,3.8,3.8,0,0,0-4.17,1c-.14-.51-.37-1-.74-.78-1,.6-.49,2-.45,3,.07,1.87,0,3.74-.11,5.6-.05,1,1.52,1,1.6,0a32,32,0,0,0-.07-6.34c.44-.3.82-.69,1.29-1,1.33-.72,2.66-.22,2.82,1.42a26.468,26.468,0,0,1-.34,5.55c-.13,1.09,1.77,1.15,1.74,0a36.575,36.575,0,0,0,.12-5.74c1.5-1.17,4.24-2.83,4.66-.31a14.719,14.719,0,0,1-.11,2.81c-.05,1.06-.06,2.13-.08,3.19a1,1,0,0,0,2,0c-.06-1.93-.14-3.87-.31-5.8-.12-1.04-.28-2.18-1.37-2.65Zm6.86,3.75a9.21,9.21,0,0,0-2.92.07.64.64,0,0,0,0,1.23,9.49,9.49,0,0,0,2.92.3C167,132.68,167,131.08,165.93,131Zm10.6,3.38c-1.13.27-2.08,1-3.3.92a3.21,3.21,0,0,1-3.17-3,3.92,3.92,0,0,1,1.56-3.73c1.17-.77,3.2-.89,4.13.33a.51.51,0,0,0,.93-.39c-.27-1.79-2.77-2.06-4.21-1.72a5.1,5.1,0,0,0-3.78,4.34,4.87,4.87,0,0,0,2.46,5.32c1.81.95,4.75.83,6.16-.79a.8.8,0,0,0-.78-1.28Z" transform="translate(760.126 700.17)" fill="#1e1e1e"/>
    <path id="Path_45" data-name="Path 45" d="M218.27,61.27a.972.972,0,1,0,.71,1.79.9.9,0,0,0,.51-.66,1,1,0,0,0-1.22-1.13Zm-.71,1a.47.47,0,0,0,0,.17.769.769,0,0,1,0-.16Zm5.51-8.19a.2.2,0,0,0-.26,0c-.95.85-.68,2.44-.72,3.62a25.57,25.57,0,0,0,.09,4.95.7.7,0,0,0,1.34,0,31.43,31.43,0,0,0,.13-4.95C223.64,56.52,224,55,223.07,54.08Zm.34-2.85a1.09,1.09,0,0,0,.06-.36.54.54,0,0,0-.26-.49.7.7,0,0,0-1,.39v.12a.65.65,0,0,0,1.2.34Zm6.41,10.31c-2.25.59-1.57-4.79-1.56-5.65v-.91c.41,0,.83.05,1.24.09,1,.12,1.07-1.74,0-1.65a10.231,10.231,0,0,1-1.24,0,8.491,8.491,0,0,0-.28-2.19.47.47,0,0,0-.9,0,8.64,8.64,0,0,0-.36,2.16,1.92,1.92,0,0,0-1.19.29.38.38,0,0,0-.08.58,1.89,1.89,0,0,0,1.22.55v1.47a15.62,15.62,0,0,0,.21,4.78c.48,1.58,2.14,2.8,3.6,1.62.58-.43-.04-1.3-.66-1.14Zm6.67-8.21c-2,.06-3.59,2-4.13,3.75a4.62,4.62,0,0,0,1.51,5.07,5.71,5.71,0,0,0,6.21.39c1-.5.1-2.13-.89-1.53-2.25,1.34-5.47.42-5.81-2,2.37.1,4.78-.11,7.15-.22a.79.79,0,0,0,.68-1.18c-1.21-1.79-2.21-4.35-4.72-4.28Zm-3,4.23V57.4c.47-1.57,2.19-3.49,3.93-2.39a5.8,5.8,0,0,1,1.75,2.2c-1.89.06-3.8.12-5.69.35Zm21.96-3.71c-1.69-.74-3.77.22-5,1.64a2.78,2.78,0,0,0-1.38-1.58,3.73,3.73,0,0,0-4.07.92,1.55,1.55,0,0,1,0-.21.63.63,0,0,0-.44-.44c.24.06-.21-.1-.27-.06l-.22.12a.62.62,0,0,0-.31.54c0,2.59.11,5.15,0,7.74-.06,1,1.51,1,1.6,0a29.512,29.512,0,0,0,0-6.23c.42-.29.78-.65,1.23-.9,1.3-.7,2.58-.22,2.74,1.38a25.471,25.471,0,0,1-.34,5.44c-.13,1.09,1.78,1.15,1.74,0a35.187,35.187,0,0,0,.11-5.62c1.47-1.15,4.14-2.76,4.55-.31a14.112,14.112,0,0,1-.12,2.75c0,1-.06,2.09-.07,3.13a1,1,0,1,0,2,0c-.06-1.89-.14-3.8-.3-5.69-.22-1.03-.39-2.15-1.45-2.62Zm6.71,3.71a8.91,8.91,0,0,0-2.87.07.64.64,0,0,0,0,1.22,9.24,9.24,0,0,0,2.87.31c1.03.05,1.03-1.56,0-1.6Zm11.38-1.89c0-1.73.34-3.57-.48-5.13a.28.28,0,0,0-.49,0c-.75,1.39-.6,3-.58,4.6A5.25,5.25,0,0,0,268.28,54c-2.31.2-3.36,2.17-3.57,4.29-.19,1.91.56,4.27,2.51,5a5,5,0,0,0,4.52-.94.341.341,0,0,0,0,.1c-.1,1.13,1.81,1.16,1.78,0V60.64a.7.7,0,0,0,0-.38c-.03-1.52-.01-3.04.02-4.59Zm-5,6.17c-1.79.09-2.44-2-2.34-3.46.14-1.91,1.22-3.42,3.32-2.94a15.489,15.489,0,0,1,2.51,1c0,1.22-.05,2.41-.11,3.61a5.5,5.5,0,0,1-3.42,1.79Z" transform="translate(781.126 774.17)" fill="#1e1e1e"/>
    <path id="Path_46" data-name="Path 46" d="M409.34,61.27a.63.63,0,0,0-.38.21.66.66,0,0,0-.22.27.958.958,0,0,0,1.31,1.31.9.9,0,0,0,.51-.66,1,1,0,0,0-1.22-1.13Zm-.71,1a.994.994,0,0,0,0,.17v-.16Zm5.51-8.19a.2.2,0,0,0-.26,0c-.95.85-.68,2.44-.72,3.62a25.572,25.572,0,0,0,.09,4.95.7.7,0,0,0,1.34,0,30.266,30.266,0,0,0,.12-4.95c0-1.18.29-2.7-.57-3.62Zm.34-2.85a1.089,1.089,0,0,0,.06-.36.53.53,0,0,0-.27-.49h-.05a.7.7,0,0,0-1,.39v.12a.653.653,0,1,0,1.26.34Zm6.41,10.31c-2.25.59-1.57-4.79-1.56-5.65v-.91l1.24.09c1.05.12,1.07-1.74,0-1.65a10.259,10.259,0,0,1-1.24,0,8.942,8.942,0,0,0-.28-2.19.47.47,0,0,0-.9,0,9.132,9.132,0,0,0-.37,2.16,1.91,1.91,0,0,0-1.18.29.38.38,0,0,0-.08.58,1.89,1.89,0,0,0,1.22.55v1.47a15.94,15.94,0,0,0,.2,4.78c.49,1.58,2.15,2.8,3.61,1.62.58-.43-.04-1.3-.66-1.14Zm6.67-8.21c-2,.06-3.59,2-4.14,3.75a4.64,4.64,0,0,0,1.52,5.07,5.71,5.71,0,0,0,6.21.39c1-.5.1-2.13-.89-1.53-2.25,1.34-5.47.42-5.81-2,2.37.1,4.78-.11,7.14-.22a.79.79,0,0,0,.68-1.18c-1.16-1.79-2.21-4.35-4.71-4.28Zm-3,4.23a1.094,1.094,0,0,1,0-.16c.47-1.57,2.19-3.49,3.93-2.39a5.8,5.8,0,0,1,1.75,2.2c-1.89.06-3.81.12-5.69.35Zm33.65-3.12a5.08,5.08,0,0,0-1.09,6.83c1.68,2.27,4.69,2.43,7.07,1.27,1-.5.09-2.13-.9-1.53-1.8,1.08-4.24,1-5.4-1a2.78,2.78,0,0,1-.37-1.08c2.35.12,4.76-.12,7.11-.23a.8.8,0,0,0,.79-.79c-.26-3.65-4.06-5.98-7.21-3.47Zm-.63,3.12a3.52,3.52,0,0,1,3.05-2.83,3,3,0,0,1,3.08,2.47,59.66,59.66,0,0,0-6.13.36Zm-11.06-3.71c-1.7-.74-3.77.22-5,1.64a2.78,2.78,0,0,0-1.38-1.58,3.73,3.73,0,0,0-4.07.92v-.21a.6.6,0,0,0-.44-.44c.25.06-.2-.1-.26-.06l-.22.12a.65.65,0,0,0-.32.54c0,2.59.12,5.15,0,7.74a.8.8,0,0,0,1.6,0,28.849,28.849,0,0,0,0-6.23c.42-.29.78-.65,1.23-.9,1.3-.7,2.58-.22,2.74,1.38a26.139,26.139,0,0,1-.34,5.44c-.13,1.09,1.77,1.15,1.74,0a35.186,35.186,0,0,0,.11-5.62c1.47-1.15,4.14-2.76,4.55-.31a14.107,14.107,0,0,1-.12,2.75c0,1-.06,2.09-.07,3.13a1,1,0,1,0,2,0c-.06-1.89-.14-3.8-.3-5.69-.22-1.03-.39-2.15-1.45-2.62Zm6.71,3.71a8.91,8.91,0,0,0-2.87.07.64.64,0,0,0,0,1.22,9.2,9.2,0,0,0,2.87.31c1.03.05,1.03-1.56,0-1.6Z" transform="translate(711.126 540.17)" fill="#1e1e1e"/>
    <path id="Path_47" data-name="Path 47" d="M406.226,26.453c-15.365-.715-147.729,0-164.635.282-13.7.266-29.088-.183-34.185,10.319a6.292,6.292,0,0,0-.646,3.157,22.257,22.257,0,0,0-4.972,14.839c.572,7.012,3.058,55.6,5.544,72.666,1.019,7.361,14.121-.2,13.45-4.985-1.79-12.745-2.163-25.623-2.983-38.418-.472-7.162-1.467-29.611-2.188-33.882l.373-.133a126.1,126.1,0,0,1,17.4-6.032,18.121,18.121,0,0,0,8.08-6.3c4.5,0,41.992-.5,58.5-.715,13.674-.166,51.489-.964,56.71-1.163,14.743-.532,28.392,1.1,42.986,1.795,7.26.316,14.619-11.034,6.564-11.432Z" transform="translate(658.126 630.17)" fill="#fff" opacity="0.2"/>
    <path id="Path_48" data-name="Path 48" d="M406.226,26.453c-15.365-.715-147.729,0-164.635.282-13.7.266-29.088-.183-34.185,10.319a6.292,6.292,0,0,0-.646,3.157,22.257,22.257,0,0,0-4.972,14.839c.572,7.012,3.058,55.6,5.544,72.666,1.019,7.361,14.121-.2,13.45-4.985-1.79-12.745-2.163-25.623-2.983-38.418-.472-7.162-1.467-29.611-2.188-33.882l.373-.133a126.1,126.1,0,0,1,17.4-6.032,18.121,18.121,0,0,0,8.08-6.3c4.5,0,41.992-.5,58.5-.715,13.674-.166,51.489-.964,56.71-1.163,14.743-.532,28.392,1.1,42.986,1.795,7.26.316,14.619-11.034,6.564-11.432Z" transform="translate(652.126 515.17)" fill="#fff" opacity="0.2"/>
  </g>
</svg>
